<?xml version="1.0" encoding="utf-8"?>
<svg xmlns="http://www.w3.org/2000/svg" xmlns:xlink="http://www.w3.org/1999/xlink" style="margin: auto; background: rgb(241, 242, 243); display: block; shape-rendering: auto;" width="277px" height="277px" viewBox="0 0 100 100" preserveAspectRatio="xMidYMid">
<g transform="translate(50 50)">
<g>
<animateTransform attributeName="transform" type="rotate" values="0;22.5" keyTimes="0;1" dur="0.12062726176115804s" repeatCount="indefinite"></animateTransform><path d="M25.514701644346147 -5 L51.51470164434615 -5 L51.51470164434615 5 L25.514701644346147 5 A26 26 0 0 1 25.485927789168926 5.144655938473149 L25.485927789168926 5.144655938473149 L49.50679563446238 15.094425179965484 L45.679961310811485 24.33322050507835 L21.65909346551803 14.383451263586016 A26 26 0 0 1 21.577152458601454 14.506084646735978 L21.577152458601454 14.506084646735978 L39.96192876945169 32.89086095758621 L32.89086095758621 39.96192876945169 L14.506084646735978 21.57715245860145 A26 26 0 0 1 14.383451263586016 21.65909346551803 L14.383451263586016 21.65909346551803 L24.33322050507835 45.679961310811485 L15.094425179965484 49.50679563446238 L5.144655938473149 25.485927789168926 A26 26 0 0 1 5.0000000000000036 25.514701644346147 L5.0000000000000036 25.514701644346147 L5.000000000000005 51.51470164434615 L-4.999999999999999 51.51470164434615 L-5.000000000000001 25.514701644346147 A26 26 0 0 1 -5.144655938473146 25.48592778916893 L-5.144655938473146 25.48592778916893 L-15.094425179965477 49.50679563446239 L-24.333220505078344 45.67996131081149 L-14.383451263586014 21.659093465518033 A26 26 0 0 1 -14.506084646735978 21.57715245860145 L-14.506084646735978 21.57715245860145 L-32.89086095758621 39.96192876945169 L-39.96192876945169 32.89086095758622 L-21.57715245860145 14.506084646735983 A26 26 0 0 1 -21.65909346551803 14.383451263586016 L-21.65909346551803 14.383451263586016 L-45.679961310811485 24.33322050507835 L-49.50679563446238 15.09442517996549 L-25.485927789168926 5.144655938473156 A26 26 0 0 1 -25.514701644346147 5 L-25.514701644346147 5 L-51.51470164434615 5.0000000000000036 L-51.51470164434615 -4.999999999999989 L-25.51470164434615 -4.999999999999993 A26 26 0 0 1 -25.485927789168926 -5.14465593847315 L-25.485927789168926 -5.14465593847315 L-49.506795634462385 -15.094425179965482 L-45.67996131081149 -24.333220505078344 L-21.659093465518033 -14.38345126358601 A26 26 0 0 1 -21.577152458601454 -14.506084646735978 L-21.577152458601454 -14.506084646735978 L-39.96192876945169 -32.89086095758621 L-32.89086095758622 -39.96192876945168 L-14.506084646735983 -21.577152458601446 A26 26 0 0 1 -14.383451263586029 -21.659093465518023 L-14.383451263586029 -21.659093465518023 L-24.33322050507838 -45.67996131081147 L-15.09442517996552 -49.50679563446237 L-5.144655938473169 -25.485927789168922 A26 26 0 0 1 -5.000000000000001 -25.514701644346147 L-5.000000000000001 -25.514701644346147 L-5.000000000000005 -51.51470164434615 L4.999999999999988 -51.51470164434615 L4.999999999999992 -25.51470164434615 A26 26 0 0 1 5.144655938473159 -25.485927789168926 L5.144655938473159 -25.485927789168926 L15.0944251799655 -49.50679563446238 L24.33322050507836 -45.67996131081148 L14.38345126358602 -21.659093465518026 A26 26 0 0 1 14.506084646735975 -21.577152458601454 L14.506084646735975 -21.577152458601454 L32.8908609575862 -39.96192876945169 L39.961928769451674 -32.89086095758623 L21.577152458601446 -14.506084646735987 A26 26 0 0 1 21.659093465518023 -14.383451263586029 L21.659093465518023 -14.383451263586029 L45.679961310811464 -24.33322050507838 L49.506795634462364 -15.09442517996552 L25.485927789168922 -5.1446559384731705 A26 26 0 0 1 25.514701644346147 -5.000000000000003 M0 -6A6 6 0 1 0 0 6 A6 6 0 1 0 0 -6" fill="#3f3047"></path></g></g>
<!-- [ldio] generated by https://loading.io/ --></svg>